<svg width="300" height="111" viewBox="0 0 300 111" fill="none" xmlns="http://www.w3.org/2000/svg">
<path d="M12.4775 39H0.34375V0.0595703H12.4775V13.7559L20.29 0.0595703H34.9385L23.8301 18.6387L35.3779 39H20.7051L14.2842 26.0361L12.4775 28.2578V39ZM57.2285 29.4053L56.2275 39H43.6543L49.9043 0.0595703H70.8516L77.1016 39H64.4795L63.5273 29.4053H57.2285ZM57.8633 25.0352H62.8926L60.3535 5.77246L57.8633 25.0352ZM103.151 23.1553H97.3896V39H85.2559V0.0595703H101.101C103.461 0.0595703 105.446 0.214193 107.058 0.523438C108.685 0.816406 110.02 1.23145 111.062 1.76855C112.119 2.28939 112.933 2.91602 113.503 3.64844C114.073 4.38086 114.488 5.18652 114.748 6.06543C115.008 6.94434 115.163 7.88021 115.212 8.87305C115.261 9.86589 115.285 10.875 115.285 11.9004C115.285 12.8607 115.22 13.7965 115.09 14.708C114.976 15.6032 114.732 16.417 114.357 17.1494C113.983 17.8818 113.446 18.5085 112.746 19.0293C112.062 19.5501 111.159 19.9082 110.036 20.1035C110.557 20.1523 111.118 20.2988 111.721 20.543C112.339 20.7708 112.909 21.1533 113.43 21.6904C113.967 22.2113 114.406 22.9111 114.748 23.79C115.106 24.6689 115.285 25.7757 115.285 27.1104V39H103.151V23.1553ZM97.3896 17.4912H103.151V5.8457H97.3896V17.4912ZM152.785 0.0595703V5.8457H144.338V39H132.204V5.8457H123.806V0.0595703H152.785ZM192.141 0.0595703V39H180.007V22.2031H173.024V39H160.891V0.0595703H173.024V16.0996H180.007V0.0595703H192.141ZM213.991 0.0595703V39H201.857V0.0595703H213.991ZM235.231 39H223.098V0.0595703H235.231V13.7559L243.044 0.0595703H257.692L246.584 18.6387L258.132 39H243.459L237.038 26.0361L235.231 28.2578V39ZM279.982 29.4053L278.981 39H266.408L272.658 0.0595703H293.605L299.855 39H287.233L286.281 29.4053H279.982ZM280.617 25.0352H285.646L283.107 5.77246L280.617 25.0352Z" fill="url(#paint2_linear_994_94)"/>
<path d="M0.758789 110L2.56543 73.4033H7.93652L18.4346 102.041L28.7373 73.4033H34.1084L36.0371 110H31.2031L29.9336 80.6787L19.8262 110H16.9941L6.39844 80.8984L5.32422 110H0.758789ZM69.9971 73.623V96.4014C69.9971 98.3545 69.9076 100.031 69.7285 101.431C69.5658 102.83 69.2646 104.076 68.8252 105.166C68.3857 106.24 67.8324 107.119 67.165 107.803C66.514 108.47 65.6514 109.023 64.5771 109.463C63.5192 109.886 62.3311 110.179 61.0127 110.342C59.6943 110.505 58.0993 110.586 56.2275 110.586C54.4209 110.586 52.8828 110.513 51.6133 110.366C50.3438 110.22 49.1719 109.951 48.0977 109.561C47.0234 109.154 46.1527 108.625 45.4854 107.974C44.8343 107.306 44.2728 106.444 43.8008 105.386C43.3288 104.312 42.9951 103.05 42.7998 101.602C42.6208 100.153 42.5312 98.4196 42.5312 96.4014V73.623H47.4873V97.0361C47.4873 98.387 47.4873 99.3636 47.4873 99.9658C47.5036 100.568 47.5524 101.309 47.6338 102.188C47.7152 103.05 47.821 103.644 47.9512 103.97C48.0814 104.279 48.293 104.67 48.5859 105.142C48.8952 105.614 49.237 105.915 49.6113 106.045C50.002 106.159 50.5309 106.305 51.1982 106.484C51.8656 106.663 52.5817 106.769 53.3467 106.802C54.1279 106.818 55.0964 106.826 56.252 106.826C57.6191 106.826 58.7585 106.785 59.6699 106.704C60.5977 106.623 61.4033 106.46 62.0869 106.216C62.7705 105.972 63.2913 105.695 63.6494 105.386C64.0238 105.06 64.3167 104.588 64.5283 103.97C64.7562 103.351 64.9027 102.708 64.9678 102.041C65.0329 101.374 65.0654 100.487 65.0654 99.3799L65.041 73.623H69.9971ZM104.812 88.6133C104.812 90.8431 104.795 92.6823 104.763 94.1309C104.746 95.5632 104.673 97.0361 104.543 98.5498C104.413 100.047 104.274 101.235 104.128 102.114C103.981 102.993 103.705 103.896 103.298 104.824C102.907 105.736 102.517 106.419 102.126 106.875C101.752 107.314 101.174 107.77 100.393 108.242C99.6113 108.714 98.8464 109.032 98.0977 109.194C97.349 109.357 96.3317 109.52 95.0459 109.683C93.7764 109.845 92.5231 109.943 91.2861 109.976C90.0654 109.992 88.5111 110 86.623 110H77.7852V73.623H90.3828C92.4336 73.623 94.167 73.7126 95.583 73.8916C96.999 74.0544 98.2604 74.3717 99.3672 74.8438C100.49 75.2995 101.385 75.8773 102.053 76.5771C102.72 77.277 103.265 78.2129 103.688 79.3848C104.128 80.5404 104.421 81.8424 104.567 83.291C104.73 84.7396 104.812 86.5137 104.812 88.6133ZM99.9043 88.6865C99.9043 87.1891 99.8962 86.1149 99.8799 85.4639C99.8799 84.7965 99.8229 83.9665 99.709 82.9736C99.6113 81.9808 99.4648 81.3053 99.2695 80.9473C99.0905 80.5729 98.7975 80.1009 98.3906 79.5312C97.9837 78.9616 97.5036 78.6035 96.9502 78.457C96.4131 78.2943 95.6969 78.099 94.8018 77.8711C93.9229 77.627 92.9382 77.4886 91.8477 77.4561C90.7572 77.4072 89.4307 77.3828 87.8682 77.3828H82.7412V106.265H88.6006C90.0003 106.265 91.0908 106.257 91.8721 106.24C92.6533 106.208 93.4997 106.134 94.4111 106.021C95.3226 105.907 95.9899 105.76 96.4131 105.581C96.8525 105.386 97.3245 105.093 97.8291 104.702C98.3337 104.295 98.6836 103.84 98.8789 103.335C99.0742 102.814 99.2695 102.139 99.4648 101.309C99.6602 100.462 99.7822 99.5345 99.8311 98.5254C99.8799 97.5163 99.9043 96.2956 99.9043 94.8633V88.6865ZM139.138 88.6133C139.138 90.8431 139.121 92.6823 139.089 94.1309C139.073 95.5632 138.999 97.0361 138.869 98.5498C138.739 100.047 138.601 101.235 138.454 102.114C138.308 102.993 138.031 103.896 137.624 104.824C137.233 105.736 136.843 106.419 136.452 106.875C136.078 107.314 135.5 107.77 134.719 108.242C133.938 108.714 133.173 109.032 132.424 109.194C131.675 109.357 130.658 109.52 129.372 109.683C128.103 109.845 126.849 109.943 125.612 109.976C124.392 109.992 122.837 110 120.949 110H112.111V73.623H124.709C126.76 73.623 128.493 73.7126 129.909 73.8916C131.325 74.0544 132.587 74.3717 133.693 74.8438C134.816 75.2995 135.712 75.8773 136.379 76.5771C137.046 77.277 137.591 78.2129 138.015 79.3848C138.454 80.5404 138.747 81.8424 138.894 83.291C139.056 84.7396 139.138 86.5137 139.138 88.6133ZM134.23 88.6865C134.23 87.1891 134.222 86.1149 134.206 85.4639C134.206 84.7965 134.149 83.9665 134.035 82.9736C133.938 81.9808 133.791 81.3053 133.596 80.9473C133.417 80.5729 133.124 80.1009 132.717 79.5312C132.31 78.9616 131.83 78.6035 131.276 78.457C130.739 78.2943 130.023 78.099 129.128 77.8711C128.249 77.627 127.264 77.4886 126.174 77.4561C125.083 77.4072 123.757 77.3828 122.194 77.3828H117.067V106.265H122.927C124.326 106.265 125.417 106.257 126.198 106.24C126.979 106.208 127.826 106.134 128.737 106.021C129.649 105.907 130.316 105.76 130.739 105.581C131.179 105.386 131.651 105.093 132.155 104.702C132.66 104.295 133.01 103.84 133.205 103.335C133.4 102.814 133.596 102.139 133.791 101.309C133.986 100.462 134.108 99.5345 134.157 98.5254C134.206 97.5163 134.23 96.2956 134.23 94.8633V88.6865ZM173.562 73.623V96.4014C173.562 98.3545 173.472 100.031 173.293 101.431C173.13 102.83 172.829 104.076 172.39 105.166C171.95 106.24 171.397 107.119 170.729 107.803C170.078 108.47 169.216 109.023 168.142 109.463C167.084 109.886 165.896 110.179 164.577 110.342C163.259 110.505 161.664 110.586 159.792 110.586C157.985 110.586 156.447 110.513 155.178 110.366C153.908 110.22 152.736 109.951 151.662 109.561C150.588 109.154 149.717 108.625 149.05 107.974C148.399 107.306 147.837 106.444 147.365 105.386C146.893 104.312 146.56 103.05 146.364 101.602C146.185 100.153 146.096 98.4196 146.096 96.4014V73.623H151.052V97.0361C151.052 98.387 151.052 99.3636 151.052 99.9658C151.068 100.568 151.117 101.309 151.198 102.188C151.28 103.05 151.385 103.644 151.516 103.97C151.646 104.279 151.857 104.67 152.15 105.142C152.46 105.614 152.801 105.915 153.176 106.045C153.566 106.159 154.095 106.305 154.763 106.484C155.43 106.663 156.146 106.769 156.911 106.802C157.692 106.818 158.661 106.826 159.816 106.826C161.184 106.826 162.323 106.785 163.234 106.704C164.162 106.623 164.968 106.46 165.651 106.216C166.335 105.972 166.856 105.695 167.214 105.386C167.588 105.06 167.881 104.588 168.093 103.97C168.321 103.351 168.467 102.708 168.532 102.041C168.597 101.374 168.63 100.487 168.63 99.3799L168.605 73.623H173.562ZM199.831 110H181.35V73.623H186.306V106.265H200.319L199.831 110ZM232.888 73.623V96.4014C232.888 98.3545 232.798 100.031 232.619 101.431C232.456 102.83 232.155 104.076 231.716 105.166C231.276 106.24 230.723 107.119 230.056 107.803C229.405 108.47 228.542 109.023 227.468 109.463C226.41 109.886 225.222 110.179 223.903 110.342C222.585 110.505 220.99 110.586 219.118 110.586C217.312 110.586 215.773 110.513 214.504 110.366C213.234 110.22 212.062 109.951 210.988 109.561C209.914 109.154 209.043 108.625 208.376 107.974C207.725 107.306 207.163 106.444 206.691 105.386C206.219 104.312 205.886 103.05 205.69 101.602C205.511 100.153 205.422 98.4196 205.422 96.4014V73.623H210.378V97.0361C210.378 98.387 210.378 99.3636 210.378 99.9658C210.394 100.568 210.443 101.309 210.524 102.188C210.606 103.05 210.712 103.644 210.842 103.97C210.972 104.279 211.184 104.67 211.477 105.142C211.786 105.614 212.128 105.915 212.502 106.045C212.893 106.159 213.422 106.305 214.089 106.484C214.756 106.663 215.472 106.769 216.237 106.802C217.019 106.818 217.987 106.826 219.143 106.826C220.51 106.826 221.649 106.785 222.561 106.704C223.488 106.623 224.294 106.46 224.978 106.216C225.661 105.972 226.182 105.695 226.54 105.386C226.914 105.06 227.207 104.588 227.419 103.97C227.647 103.351 227.793 102.708 227.858 102.041C227.924 101.374 227.956 100.487 227.956 99.3799L227.932 73.623H232.888ZM265.896 83.6328C265.896 86.7415 265.31 89.0527 264.138 90.5664C262.966 92.0638 261.33 92.9834 259.23 93.3252C262.355 93.96 264.211 95.9456 264.797 99.2822L266.677 110H261.379C261.249 109.251 261.094 108.169 260.915 106.753C260.752 105.321 260.598 104.116 260.451 103.14C260.305 102.147 260.109 101.097 259.865 99.9902C259.621 98.8835 259.296 97.9557 258.889 97.207C258.498 96.4583 258.026 95.9049 257.473 95.5469C256.594 95.1725 255.153 94.9854 253.151 94.9854H245.607V110H240.676V73.623H251.784C252.956 73.623 253.949 73.6393 254.763 73.6719C255.593 73.6882 256.464 73.737 257.375 73.8184C258.286 73.8997 259.051 74.0137 259.67 74.1602C260.288 74.3066 260.915 74.502 261.55 74.7461C262.201 74.9902 262.73 75.2913 263.137 75.6494C263.56 76.0075 263.959 76.4388 264.333 76.9434C264.707 77.4316 265 78.0013 265.212 78.6523C265.424 79.2871 265.586 80.0195 265.7 80.8496C265.83 81.6797 265.896 82.6074 265.896 83.6328ZM261.013 85.5615V82.168C261.013 81.5495 260.996 81.0693 260.964 80.7275C260.948 80.3695 260.891 79.9951 260.793 79.6045C260.695 79.1976 260.541 78.8965 260.329 78.7012C260.134 78.4896 259.865 78.2861 259.523 78.0908C259.198 77.8792 258.767 77.7327 258.229 77.6514C257.709 77.57 257.09 77.5049 256.374 77.4561C255.674 77.391 254.828 77.3584 253.835 77.3584H245.607V91.1035H254.128C255.381 91.1035 256.415 91.0384 257.229 90.9082C258.042 90.778 258.701 90.599 259.206 90.3711C259.727 90.127 260.118 89.7689 260.378 89.2969C260.638 88.8086 260.809 88.2959 260.891 87.7588C260.972 87.2054 261.013 86.473 261.013 85.5615ZM299.88 73.623V96.4014C299.88 98.3545 299.79 100.031 299.611 101.431C299.449 102.83 299.147 104.076 298.708 105.166C298.269 106.24 297.715 107.119 297.048 107.803C296.397 108.47 295.534 109.023 294.46 109.463C293.402 109.886 292.214 110.179 290.896 110.342C289.577 110.505 287.982 110.586 286.11 110.586C284.304 110.586 282.766 110.513 281.496 110.366C280.227 110.22 279.055 109.951 277.98 109.561C276.906 109.154 276.035 108.625 275.368 107.974C274.717 107.306 274.156 106.444 273.684 105.386C273.212 104.312 272.878 103.05 272.683 101.602C272.504 100.153 272.414 98.4196 272.414 96.4014V73.623H277.37V97.0361C277.37 98.387 277.37 99.3636 277.37 99.9658C277.386 100.568 277.435 101.309 277.517 102.188C277.598 103.05 277.704 103.644 277.834 103.97C277.964 104.279 278.176 104.67 278.469 105.142C278.778 105.614 279.12 105.915 279.494 106.045C279.885 106.159 280.414 106.305 281.081 106.484C281.748 106.663 282.465 106.769 283.229 106.802C284.011 106.818 284.979 106.826 286.135 106.826C287.502 106.826 288.641 106.785 289.553 106.704C290.48 106.623 291.286 106.46 291.97 106.216C292.653 105.972 293.174 105.695 293.532 105.386C293.907 105.06 294.2 104.588 294.411 103.97C294.639 103.351 294.785 102.708 294.851 102.041C294.916 101.374 294.948 100.487 294.948 99.3799L294.924 73.623H299.88Z" fill="white"/>
<defs>
<!-- <radialGradient id="paint0_angular_2_2" cx="0" cy="0" r="1" gradientUnits="userSpaceOnUse" gradientTransform="translate(340 90) rotate(90) scale(111 342)">
<stop offset="0.303125" stop-color="#B050EB" stop-opacity="0.96"/>
<stop offset="0.402771" stop-color="#56129A"/>
<stop offset="0.443671" stop-color="#30A2D3"/>
</radialGradient> -->
<linearGradient id="paint0_linear_994_94" x1="0" y1="0" x2="195" y2="201" gradientUnits="userSpaceOnUse">
<stop offset="0.183111" stop-color="#FF56F6"/>
<stop offset="0.432593" stop-color="#B936EE"/>
<stop offset="0.854443" stop-color="#3BACE2"/>
<stop offset="1" stop-color="#406AFF"/>
</linearGradient>
<linearGradient id="paint1_linear_994_94" x1="0" y1="0" x2="195" y2="201" gradientUnits="userSpaceOnUse">
<stop offset="0.183111" stop-color="#FF56F6"/>
<stop offset="0.432593" stop-color="#B936EE"/>
<stop offset="0.854443" stop-color="#3BACE2"/>
<stop offset="1" stop-color="#406AFF"/>
</linearGradient>
<linearGradient id="paint2_linear_994_94" x1="0" y1="0" x2="195" y2="201" gradientUnits="userSpaceOnUse">
<stop offset="0.183111" stop-color="#FF56F6"/>
<stop offset="0.432593" stop-color="#B936EE"/>
<stop offset="0.854443" stop-color="#3BACE2"/>
<stop offset="1" stop-color="#406AFF"/>
</linearGradient>
</defs>
</svg>
